<?xml version="1.0" encoding="UTF-8" standalone="no"?>
<svg width="512px" height="512px" viewBox="0 0 512 512" version="1.1" xmlns="http://www.w3.org/2000/svg" xmlns:xlink="http://www.w3.org/1999/xlink" xmlns:sketch="http://www.bohemiancoding.com/sketch/ns">
    <!-- Generator: Sketch 3.4 (15575) - http://www.bohemiancoding.com/sketch -->
    <title>oauth-color</title>
    <desc>Created with Sketch.</desc>
    <defs></defs>
    <g id="Icons" stroke="none" stroke-width="1" fill="none" fill-rule="evenodd" sketch:type="MSPage">
        <g id="oauth-color" sketch:type="MSArtboardGroup" fill="#7F8C8D">
            <path d="M256,512 C397.384896,512 512,397.384896 512,256 C512,114.615104 397.384896,0 256,0 C114.615104,0 0,114.615104 0,256 C0,397.384896 114.615104,512 256,512 Z M327.422012,373.780979 C315.576532,373.780979 305.181265,366.262051 301.553349,355.07051 L288.359541,314.776765 L222.357171,314.776765 L210.098432,354.703058 C206.398148,366.112207 195.923849,373.749484 184.017427,373.749484 C181.158895,373.749484 178.319408,373.296134 175.577998,372.404704 C161.346282,368.122217 153.266788,352.768447 157.626953,338.198256 L213.336895,161.322095 C216.954337,150.070426 227.603843,142.222222 239.236981,142.222222 L268.860204,142.222222 C280.559044,142.222222 291.207598,149.936807 294.754577,160.983276 L353.343046,337.793582 C358.027915,352.249242 350.270268,367.767173 336.0595,372.40375 C333.249531,373.318085 330.344341,373.780979 327.422012,373.780979 Z" id="Oval-7-Copy" sketch:type="MSShapeGroup"></path>
        </g>
    </g>
</svg>