<?xml version="1.0" encoding="UTF-8"?>
<svg width="100px" height="100px" viewBox="0 0 100 100" version="1.1" xmlns="http://www.w3.org/2000/svg" xmlns:xlink="http://www.w3.org/1999/xlink">
    <!-- Generator: Sketch 46.2 (44496) - http://www.bohemiancoding.com/sketch -->
    <title>linkedin</title>
    <desc>Created with Sketch.</desc>
    <defs></defs>
    <g id="Plugin-Icons" stroke="none" stroke-width="1" fill="none" fill-rule="evenodd">
        <g id="linkedin" fill="#0174B9">
            <path d="M50,100 C22.3857625,100 0,77.6142375 0,50 C0,22.3857625 22.3857625,0 50,0 C77.6142375,0 100,22.3857625 100,50 C100,77.6142375 77.6142375,100 50,100 Z M72.880212,54.8339676 C72.880212,46.0447423 68.1870946,41.9549284 61.9267501,41.9550316 C56.873735,41.9550316 54.616222,44.7362949 53.3521427,46.6832308 L53.3521427,46.7756816 L53.2896147,46.7756816 C53.3077747,46.7462748 53.3328478,46.7135662 53.3521427,46.6832308 L53.3521427,42.6272606 L43.8377563,42.6272606 C43.9659081,45.3135967 43.8377563,71.2416152 43.8377563,71.2416152 L53.3530714,71.2416152 L53.3530714,55.2615526 C53.3530714,54.4053508 53.4176632,53.5539984 53.6686011,52.9423372 C54.3567201,51.2313779 55.9208517,49.4626367 58.5491997,49.4626367 C61.9922706,49.4626367 63.3680956,52.087167 63.3680956,55.9328529 L63.3680956,71.2416152 L72.880212,71.2416152 L72.880212,54.8339676 Z M33.8843316,28.8337218 C30.6291548,28.8337218 28.5,30.9688612 28.5,33.7766422 C28.5,36.5232364 30.5675553,38.7231738 33.7580373,38.7231738 L33.8215972,38.7231738 C37.1398182,38.7231738 39.2034525,36.5236491 39.2034525,33.7766422 C39.1409245,30.9688612 37.1398182,28.8337218 33.8843316,28.8337218 Z M29.0651263,71.2416152 L38.57683,71.2416152 L38.57683,42.6272606 L29.0651263,42.6272606 L29.0651263,71.2416152 Z" id="Combined-Shape"></path>
        </g>
    </g>
</svg>