<?xml version="1.0" encoding="UTF-8" standalone="no"?>
<svg width="128px" height="128px" viewBox="0 0 128 128" version="1.1" xmlns="http://www.w3.org/2000/svg" xmlns:xlink="http://www.w3.org/1999/xlink" xmlns:sketch="http://www.bohemiancoding.com/sketch/ns">
    <!-- Generator: Sketch 3.4.2 (15855) - http://www.bohemiancoding.com/sketch -->
    <title>Group</title>
    <desc>Created with Sketch.</desc>
    <defs></defs>
    <g id="Icons" stroke="none" stroke-width="1" fill="none" fill-rule="evenodd" sketch:type="MSPage">
        <g id="dukt-plugin-icons" sketch:type="MSArtboardGroup" transform="translate(-2112.000000, -320.000000)">
            <g id="Group" sketch:type="MSLayerGroup" transform="translate(2112.000000, 320.000000)">
                <path d="M83.0630497,7.98065778 C81.1197294,2.0026508 74.7003072,-1.26776014 68.7220302,0.67547241 C62.7456547,2.61680356 59.4731945,9.03593573 61.4165148,15.0139427 L90.8420355,105.547284 C92.8633168,111.131701 98.8948355,114.269013 104.686767,112.601484 C110.725891,110.863603 114.409073,104.450175 112.480964,98.5178016 C112.406806,98.2915348 83.0630497,7.98065778 83.0630497,7.98065778" id="Fill-1" fill="#DFA22F" sketch:type="MSShapeGroup"></path>
                <path d="M37.465377,22.7963799 C35.5239581,16.8183729 29.1026345,13.547962 23.126259,15.4892931 C17.1479819,17.4306243 13.8774233,23.8516578 15.8188421,29.8277634 L45.2462642,120.361104 C47.2675456,125.945521 53.2990642,129.082834 59.089094,127.417206 C65.1301201,125.679325 68.8114001,119.263996 66.8832917,113.331622 C66.8110352,113.105355 37.465377,22.7963799 37.465377,22.7963799" id="Fill-2" fill="#3CB187" sketch:type="MSShapeGroup"></path>
                <path d="M120.102127,82.9605328 C126.078502,81.0192016 129.350962,74.5981681 127.407642,68.6220625 C125.466223,62.6440555 119.0449,59.3736446 113.068524,61.3149757 L22.5310933,90.7410686 C16.9464242,92.7603572 13.8089697,98.7935048 15.4746728,104.583273 C17.214534,110.622125 23.6282517,114.30514 29.560893,112.377119 C29.78717,112.304865 120.102127,82.9605328 120.102127,82.9605328" id="Fill-3" fill="#CE1E5B" sketch:type="MSShapeGroup"></path>
                <path d="M41.4014563,108.530583 C47.2941664,106.615871 54.8906094,104.147852 63.0403852,101.499199 C61.1255872,95.6067556 58.6574563,88.0106557 56.0086841,79.8593466 L34.3678537,86.8926315 L41.4014563,108.530583" id="Fill-4" fill="#392538" sketch:type="MSShapeGroup"></path>
                <path d="M86.9972275,93.7167623 C95.1793287,91.0586027 102.781476,88.5867804 108.636156,86.6853787 C106.721358,80.7910334 104.253228,73.1930322 101.602554,65.0417231 L79.9636249,72.075008 L86.9972275,93.7167623" id="Fill-5" fill="#BB242A" sketch:type="MSShapeGroup"></path>
                <path d="M105.285735,37.3668212 C111.264012,35.4235886 114.534571,29.0044565 112.593152,23.0264495 C110.649832,17.0503439 104.23041,13.7780316 98.2521327,15.7212641 L7.71660342,45.1454556 C2.13193433,47.1666456 -1.00742171,53.1978918 0.66018292,58.9895614 C2.39814259,65.0284133 8.81376176,68.7114284 14.7464031,66.783407 C14.9707786,66.7092524 105.285735,37.3668212 105.285735,37.3668212" id="Fill-7" fill="#72C5CD" sketch:type="MSShapeGroup"></path>
                <path d="M26.5812619,62.9368714 C32.4758735,61.0221599 40.0723165,58.5541404 48.2239938,55.9054879 C45.5657142,47.7237563 43.0956818,40.1200509 41.1922927,34.265635 L19.5476593,41.3008213 L26.5812619,62.9368714" id="Fill-9" fill="#238C73" sketch:type="MSShapeGroup"></path>
                <path d="M72.1770332,48.1230507 C80.3610358,45.4648911 87.9650847,42.9930689 93.8216666,41.0916671 C91.1614854,32.9080342 88.691453,25.3024274 86.7880639,19.4461101 L65.1434305,26.4812964 L72.1770332,48.1230507" id="Fill-10" fill="#62803A" sketch:type="MSShapeGroup"></path>
            </g>
        </g>
    </g>
</svg>