<?xml version="1.0" encoding="UTF-8" standalone="no"?>
<svg width="512px" height="512px" viewBox="0 0 512 512" version="1.1" xmlns="http://www.w3.org/2000/svg" xmlns:xlink="http://www.w3.org/1999/xlink" xmlns:sketch="http://www.bohemiancoding.com/sketch/ns">
    <!-- Generator: Sketch 3.3.3 (12072) - http://www.bohemiancoding.com/sketch -->
    <title>vimeo</title>
    <desc>Created with Sketch.</desc>
    <defs></defs>
    <g id="Icons" stroke="none" stroke-width="1" fill="none" fill-rule="evenodd" sketch:type="MSPage">
        <g id="vimeo" sketch:type="MSArtboardGroup" fill="#00B4EB">
            <g id="vimeo_icon_white_on_blue" sketch:type="MSLayerGroup" transform="translate(1.000000, 33.000000)">
                <path d="M510.093241,102.045395 C507.821609,151.691803 473.129195,219.659329 406.016,305.947974 C336.625287,396.047882 277.915954,441.118421 229.91154,441.118421 C200.150805,441.118421 174.980414,413.686737 154.412138,358.799842 C140.682299,308.482934 126.96423,258.171908 113.228506,207.855 C97.9508966,152.991632 81.5786667,125.524658 64.0529655,125.524658 C60.2335632,125.524658 46.8744828,133.558895 23.9992644,149.545026 L0,118.643211 C25.188046,96.5343553 50.0288736,74.4196184 74.4695172,52.2754737 C108.061425,23.2792895 133.296552,8.01659211 150.104276,6.47561842 C189.804874,2.66435526 214.257287,29.7901974 223.426207,87.8590263 C233.342529,150.521368 240.216276,189.486829 244.059218,204.737763 C255.52331,256.725039 268.123218,282.692211 281.876598,282.692211 C292.546207,282.692211 308.600644,265.835605 329.998713,232.098868 C351.355586,198.385658 362.807908,172.730211 364.349793,155.097237 C367.404138,125.995184 355.951816,111.41475 329.998713,111.41475 C317.781333,111.41475 305.181425,114.226145 292.222529,119.778355 C317.310529,37.6891579 365.226667,-2.18206579 435.953287,0.0941052632 C488.395034,1.62919737 513.124046,35.6129605 510.093241,102.045395" id="Fill-3" sketch:type="MSShapeGroup"></path>
            </g>
        </g>
    </g>
</svg>